<?xml version="1.0" standalone="no"?>
<!DOCTYPE svg PUBLIC "-//W3C//DTD SVG 20010904//EN"
 "http://www.w3.org/TR/2001/REC-SVG-20010904/DTD/svg10.dtd">
<svg version="1.0" xmlns="http://www.w3.org/2000/svg"
 width="840.000000pt" height="793.000000pt" viewBox="0 0 840.000000 793.000000"
 preserveAspectRatio="xMidYMid meet">

<g transform="translate(0.000000,793.000000) scale(0.100000,-0.100000)"
fill="#000000" stroke="none">
<path d="M2190 7251 c-42 -80 -52 -260 -20 -385 49 -191 192 -372 360 -454 47
-23 114 -49 150 -58 72 -18 206 -23 288 -11 67 10 67 -4 -1 -37 -111 -55 -273
-70 -413 -39 -87 19 -84 20 -257 -58 -790 -355 -1351 -1090 -1482 -1944 -24
-154 -24 -377 -1 -479 10 -43 21 -74 25 -70 5 5 22 51 40 103 38 110 106 250
164 336 43 63 159 206 164 202 1 -2 -22 -59 -51 -128 -146 -337 -213 -631
-223 -985 -14 -485 96 -906 332 -1265 73 -110 249 -300 241 -259 -2 14 -14 68
-26 120 -27 122 -37 343 -21 465 20 152 22 152 53 1 99 -477 327 -897 633
-1168 273 -241 628 -401 1040 -468 174 -29 182 -27 106 18 -85 49 -216 174
-278 264 -46 66 -103 168 -103 183 0 4 26 -16 58 -43 263 -225 715 -378 1219
-412 364 -25 712 34 916 153 46 27 130 93 135 107 1 4 -38 15 -87 24 -381 70
-725 332 -904 691 -156 312 -184 694 -75 1003 70 200 168 356 338 535 51 55
53 58 25 50 -17 -4 -95 -7 -175 -7 -275 1 -534 81 -777 240 -232 150 -403 341
-519 579 -85 175 -127 347 -138 565 l-6 115 25 -138 c67 -374 227 -673 473
-880 240 -202 524 -315 872 -347 187 -18 432 8 580 61 250 90 322 104 535 104
127 0 192 -5 255 -19 196 -42 357 -117 535 -248 61 -44 133 -91 160 -103 216
-97 472 -63 655 88 142 117 220 286 220 477 0 129 -34 245 -100 340 -9 14 -27
68 -39 120 -26 115 -74 235 -124 313 -46 72 -67 75 -67 10 0 -27 -12 -106 -26
-178 -39 -203 -39 -203 -19 -225 10 -11 36 -23 57 -26 20 -4 35 -10 32 -15 -6
-11 -104 -12 -120 -1 -6 4 -14 40 -18 79 -9 95 -40 204 -77 273 -38 72 -106
150 -129 150 -20 0 -23 -8 -40 -135 -22 -156 -88 -395 -109 -395 -4 0 -92 23
-197 51 -263 70 -288 75 -474 99 -363 47 -503 99 -560 210 -19 37 -37 110 -27
110 4 0 18 -20 32 -44 60 -103 162 -169 319 -206 134 -33 163 -23 79 26 -72
42 -143 113 -169 169 -20 42 -24 66 -24 151 0 272 145 516 423 711 42 30 77
59 77 65 0 7 -17 8 -47 4 -217 -31 -424 -143 -560 -304 -29 -34 -53 -59 -53
-56 0 25 85 157 138 215 223 240 541 305 1067 216 l129 -22 9 -40 c9 -41 3
-301 -9 -387 -9 -65 10 -72 90 -30 121 63 218 173 281 318 18 41 35 77 37 79
3 3 38 1 79 -4 41 -5 58 -9 39 -10 -41 -2 -65 -14 -56 -29 9 -15 10 -237 1
-294 -8 -56 1 -60 63 -29 90 46 187 188 222 326 7 28 23 59 35 70 34 30 99
136 129 210 40 99 76 250 83 341 5 73 3 87 -19 135 -30 64 -57 93 -157 163
-72 51 -221 196 -221 215 0 25 26 16 119 -39 138 -82 260 -142 272 -134 15 9
2 91 -19 127 -61 103 -433 318 -712 411 -195 65 -313 86 -535 96 -254 11 -293
20 -693 150 -331 109 -406 124 -607 124 -233 0 -374 -22 -660 -103 -304 -85
-471 -111 -740 -111 -362 0 -711 65 -1258 234 -80 26 -153 46 -161 46 -9 0
-20 -9 -26 -19z m2994 -344 c46 -21 192 -115 230 -148 9 -8 -17 -106 -37 -133
-13 -17 -16 -17 -98 9 -57 19 -114 29 -181 32 -88 5 -97 8 -102 27 -11 41 -6
116 10 150 27 55 15 68 -56 64 -33 -1 -60 -2 -60 0 0 2 15 10 33 18 51 23 190
13 261 -19z m376 -207 c19 -6 64 -11 100 -11 l64 -1 -24 -18 c-65 -49 -134
-74 -215 -78 l-80 -3 37 33 c20 18 44 45 53 61 20 31 18 30 65 17z"/>
</g>
</svg>
